<svg width="216" height="93" viewBox="0 0 216 93" fill="none" xmlns="http://www.w3.org/2000/svg">
<path d="M80.435 74.8881V64.6994L54.0991 91.451C51.1663 92.0607 48.1301 92.3814 45.0196 92.3814C40.2559 92.3814 35.6651 91.6302 31.3552 90.2364C13.1721 84.3609 0 67.0688 0 46.6512C0 21.3948 20.1556 0.921082 45.0196 0.921082C66.9699 0.921082 85.2503 16.8766 89.2336 37.993C89.7618 40.7966 90.0392 43.6904 90.0392 46.6512C90.0392 57.3082 86.4508 67.1127 80.435 74.8881Z" fill="#056A67"/>
<path d="M94 37.9932V88.2354H80.4341V64.6996L54.0983 91.4512C51.1654 92.0609 48.1293 92.3816 45.0187 92.3816C40.255 92.3816 35.6642 91.6304 31.3544 90.2366L69.22 51.7732H42.7377V37.9932H94Z" fill="#37ED81"/>
<path d="M117.497 48.3962H121.938V56.9551C120.745 57.8481 119.404 58.5221 117.978 58.9459C116.513 59.4058 114.988 59.641 113.454 59.6436C111.409 59.6793 109.389 59.1962 107.579 58.2389C105.882 57.3475 104.464 56.0016 103.48 54.3502C102.51 52.6382 102 50.7016 102 48.7312C102 46.7607 102.51 44.8242 103.48 43.1121C104.465 41.4497 105.895 40.099 107.607 39.2141C109.437 38.259 111.475 37.7762 113.537 37.8094C115.25 37.7886 116.95 38.1047 118.542 38.7397C119.998 39.3334 121.295 40.2641 122.326 41.4562L119.208 44.3494C118.518 43.5968 117.677 42.999 116.741 42.595C115.806 42.1911 114.796 41.99 113.778 42.005C112.538 41.9793 111.312 42.2706 110.216 42.8516C109.187 43.3812 108.332 44.1986 107.755 45.2053C107.182 46.288 106.883 47.4955 106.883 48.7219C106.883 49.9482 107.182 51.1557 107.755 52.2384C108.321 53.247 109.158 54.0753 110.169 54.6293C111.25 55.2196 112.465 55.5177 113.694 55.4945C115.01 55.5029 116.307 55.1833 117.469 54.5642L117.497 48.3962ZM132.827 43.4284C133.871 43.0093 134.987 42.8038 136.111 42.8237V47.1589C135.593 47.1589 135.242 47.1031 135.066 47.1031C134.493 47.0689 133.92 47.1509 133.379 47.3443C132.839 47.5377 132.343 47.8385 131.92 48.2288C131.51 48.6871 131.197 49.2244 131 49.8081C130.803 50.3919 130.725 51.0098 130.773 51.6244V59.2808H126.147V43.0656H130.616V45.2053C131.175 44.4184 131.94 43.8033 132.827 43.4284ZM141.857 58.4529C140.548 57.7781 139.453 56.7506 138.692 55.4852C137.947 54.1717 137.555 52.6855 137.555 51.1732C137.555 49.6609 137.947 48.1747 138.692 46.8612C139.449 45.5856 140.545 44.548 141.857 43.8657C143.275 43.1617 144.836 42.7956 146.418 42.7956C148 42.7956 149.56 43.1617 150.979 43.8657C152.28 44.5436 153.369 45.5708 154.124 46.8333C154.876 48.1446 155.272 49.6317 155.272 51.1453C155.272 52.6589 154.876 54.146 154.124 55.4573C153.369 56.7198 152.28 57.747 150.979 58.4249C149.56 59.1289 148 59.495 146.418 59.495C144.836 59.495 143.275 59.1289 141.857 58.4249V58.4529ZM149.387 54.4432C150.128 53.5214 150.532 52.3722 150.532 51.1872C150.532 50.0022 150.128 48.8529 149.387 47.9311C149.014 47.5177 148.556 47.19 148.045 46.9701C147.534 46.7502 146.982 46.6432 146.427 46.6566C145.874 46.6378 145.324 46.7367 144.812 46.9467C144.301 47.1568 143.839 47.4732 143.457 47.8753C142.71 48.7942 142.302 49.9445 142.302 51.1313C142.302 52.3182 142.71 53.4685 143.457 54.3874C143.84 54.7881 144.302 55.1036 144.813 55.3135C145.325 55.5234 145.875 55.6231 146.427 55.6061C146.974 55.6313 147.52 55.5408 148.03 55.3405C148.54 55.1402 149.002 54.8345 149.387 54.4432ZM183.841 43.0656L178.003 59.2808H173.507L169.88 49.2149L166.124 59.2808H161.628L155.817 43.0656H160.221L164.033 54.0339L167.983 43.0656H171.943L175.783 54.0339L179.705 43.0656H183.841ZM196.886 58.4994C196.375 58.8595 195.8 59.1184 195.193 59.2622C194.501 59.4401 193.789 59.5276 193.074 59.5227C191.457 59.6254 189.862 59.0954 188.624 58.0435C188.074 57.4727 187.649 56.7915 187.378 56.0445C187.107 55.2975 186.996 54.5015 187.051 53.7083V47.0473H184.544V43.4284H187.033V39.4746H191.714V43.4284H195.729V47.0473H191.714V53.6432C191.674 54.2183 191.86 54.7864 192.232 55.2247C192.427 55.4181 192.661 55.5678 192.918 55.664C193.174 55.7602 193.448 55.8007 193.722 55.7829C194.389 55.7959 195.04 55.5829 195.572 55.1782L196.886 58.4994ZM214.15 44.6285C215.383 45.8379 216 47.6272 216 49.9964V59.2994H211.374V50.7406C211.45 49.7085 211.151 48.6836 210.532 47.8567C210.218 47.5329 209.838 47.282 209.418 47.1213C208.998 46.9606 208.547 46.8941 208.099 46.9264C207.585 46.9069 207.073 46.9953 206.595 47.1859C206.117 47.3765 205.684 47.6652 205.323 48.0334C204.929 48.4771 204.625 48.9947 204.43 49.5567C204.234 50.1186 204.151 50.7138 204.186 51.3081V59.3273H199.56V37H204.186V44.796C204.824 44.1622 205.591 43.6736 206.434 43.3633C207.356 43.0287 208.33 42.8618 209.311 42.8702C210.193 42.8271 211.075 42.9603 211.905 43.2621C212.736 43.5639 213.499 44.0284 214.15 44.6285ZM105.525 91.3113C104.247 90.9252 103.065 90.2722 102.056 89.3948L103.166 87.0412C104.067 87.8236 105.11 88.4238 106.237 88.8087C107.475 89.2563 108.78 89.4861 110.095 89.4879C111.457 89.571 112.812 89.2473 113.99 88.5576C114.386 88.3048 114.711 87.9556 114.936 87.5424C115.16 87.1292 115.278 86.6656 115.276 86.1946C115.289 85.8668 115.233 85.54 115.112 85.2355C114.991 84.9309 114.807 84.6554 114.573 84.427C114.077 83.9548 113.483 83.599 112.834 83.3851C112.149 83.1432 111.169 82.8734 109.91 82.5757C108.613 82.2784 107.337 81.8961 106.089 81.4314C105.13 81.0532 104.276 80.4467 103.601 79.6638C102.868 78.7514 102.498 77.5974 102.564 76.4264C102.562 75.342 102.885 74.282 103.49 73.3843C104.157 72.4162 105.089 71.6633 106.173 71.2167C107.588 70.6285 109.111 70.3494 110.641 70.398C111.875 70.3961 113.104 70.5588 114.296 70.8817C115.399 71.1555 116.446 71.6249 117.386 72.2679L116.396 74.6774C115.519 74.1207 114.569 73.6886 113.574 73.3936C112.622 73.1108 111.634 72.9636 110.641 72.9563C109.302 72.8608 107.967 73.1859 106.82 73.8866C106.424 74.1491 106.1 74.5072 105.877 74.928C105.654 75.3489 105.539 75.8192 105.543 76.2961C105.532 76.6254 105.59 76.9534 105.715 77.2582C105.839 77.563 106.027 77.8376 106.265 78.0637C106.782 78.534 107.39 78.8919 108.051 79.1149C108.997 79.4361 109.961 79.7032 110.937 79.915C112.22 80.2172 113.481 80.6057 114.712 81.0779C115.661 81.4569 116.507 82.0562 117.182 82.8269C117.909 83.7134 118.279 84.8423 118.218 85.9899C118.216 87.0708 117.894 88.1266 117.293 89.0227C116.6 90.0043 115.635 90.7583 114.518 91.1903C113.088 91.761 111.559 92.0332 110.021 91.9904C108.496 92.0069 106.978 91.7776 105.525 91.3113ZM127.729 90.9298C126.488 90.2512 125.454 89.2443 124.741 88.018C124.044 86.734 123.678 85.2945 123.678 83.8316C123.678 82.3687 124.044 80.9292 124.741 79.6452C125.455 78.4243 126.489 77.4236 127.729 76.752C129.063 76.0473 130.552 75.6922 132.059 75.7193C133.393 75.6943 134.714 75.9944 135.908 76.5938C137.017 77.1521 137.933 78.0341 138.535 79.1243L136.343 80.5383C135.886 79.812 135.248 79.2187 134.492 78.8172C133.732 78.4323 132.891 78.2376 132.04 78.2498C131.072 78.2392 130.117 78.4761 129.265 78.9382C128.442 79.3968 127.765 80.0807 127.313 80.9104C126.832 81.8135 126.589 82.8259 126.61 83.8502C126.586 84.8867 126.829 85.9119 127.313 86.8272C127.765 87.6569 128.442 88.3408 129.265 88.7994C130.116 89.2658 131.072 89.503 132.04 89.4879C132.891 89.5 133.732 89.3053 134.492 88.9204C135.248 88.519 135.886 87.9256 136.343 87.1993L138.572 88.5203C137.965 89.6118 137.051 90.4986 135.945 91.0694C134.757 91.692 133.435 92.0115 132.096 91.9997C130.582 92.0127 129.09 91.6313 127.766 90.8926L127.729 90.9298ZM158.334 77.4404C158.964 78.1363 159.447 78.9536 159.754 79.8426C160.061 80.7317 160.185 81.6741 160.119 82.6129V91.8043H157.242V82.9385C157.336 81.6748 156.938 80.4239 156.132 79.4499C155.714 79.0393 155.214 78.7219 154.666 78.5184C154.117 78.3148 153.533 78.2296 152.949 78.2684C152.271 78.2287 151.593 78.3306 150.956 78.5676C150.319 78.8045 149.738 79.1714 149.249 79.6452C148.775 80.176 148.411 80.7967 148.179 81.4709C147.947 82.1452 147.851 82.8592 147.898 83.5711V91.8043H145.021V69.477H147.898V78.1288C148.531 77.3127 149.362 76.6749 150.313 76.2775C151.343 75.8408 152.452 75.6253 153.569 75.6449C154.446 75.6016 155.322 75.7348 156.147 76.0368C156.971 76.3387 157.727 76.8033 158.371 77.4032L158.334 77.4404ZM171.092 90.9298C169.857 90.2529 168.832 89.245 168.131 88.018C167.44 86.7322 167.078 85.2934 167.078 83.8316C167.078 82.3698 167.44 80.931 168.131 79.6452C168.833 78.4235 169.858 77.4219 171.092 76.752C172.405 76.07 173.861 75.7141 175.339 75.7141C176.816 75.7141 178.272 76.07 179.585 76.752C180.81 77.4277 181.828 78.4284 182.527 79.6452C183.219 80.931 183.581 82.3698 183.581 83.8316C183.581 85.2934 183.219 86.7322 182.527 88.018C181.829 89.2401 180.811 90.2471 179.585 90.9298C178.275 91.6201 176.818 91.9807 175.339 91.9807C173.859 91.9807 172.402 91.6201 171.092 90.9298ZM178.086 88.7436C178.895 88.2734 179.556 87.5834 179.992 86.7528C180.442 85.8389 180.677 84.8328 180.677 83.813C180.677 82.7932 180.442 81.7871 179.992 80.8732C179.555 80.048 178.894 79.3642 178.086 78.901C177.242 78.449 176.3 78.2125 175.343 78.2125C174.387 78.2125 173.445 78.449 172.6 78.901C171.794 79.3691 171.131 80.0514 170.685 80.8732C170.223 81.7835 169.982 82.791 169.982 83.813C169.982 84.835 170.223 85.8425 170.685 86.7528C171.13 87.5799 171.793 88.2685 172.6 88.7436C173.441 89.2078 174.384 89.4511 175.343 89.4511C176.302 89.4511 177.246 89.2078 178.086 88.7436ZM193.12 90.9298C191.888 90.2527 190.866 89.2446 190.169 88.018C189.478 86.7322 189.116 85.2934 189.116 83.8316C189.116 82.3698 189.478 80.931 190.169 79.6452C190.867 78.4242 191.889 77.4224 193.12 76.752C194.436 76.0736 195.893 75.7198 197.372 75.7198C198.85 75.7198 200.307 76.0736 201.623 76.752C202.845 77.4283 203.86 78.4291 204.556 79.6452C205.247 80.931 205.609 82.3698 205.609 83.8316C205.609 85.2934 205.247 86.7322 204.556 88.018C203.861 89.2395 202.846 90.2465 201.623 90.9298C200.311 91.6202 198.852 91.9808 197.372 91.9808C195.891 91.9808 194.432 91.6202 193.12 90.9298ZM200.124 88.7436C200.93 88.2728 201.587 87.5827 202.021 86.7528C202.479 85.8414 202.718 84.8344 202.718 83.813C202.718 82.7916 202.479 81.7846 202.021 80.8732C201.587 80.0486 200.929 79.3647 200.124 78.901C199.274 78.4318 198.318 78.1944 197.348 78.2125C196.379 78.1918 195.422 78.4293 194.573 78.901C193.762 79.3662 193.096 80.0491 192.649 80.8732C192.186 81.7835 191.946 82.791 191.946 83.813C191.946 84.835 192.186 85.8425 192.649 86.7528C193.141 87.5889 193.859 88.2666 194.721 88.7064C195.565 89.1927 196.524 89.4372 197.497 89.4134C198.431 89.4146 199.349 89.1709 200.161 88.7064L200.124 88.7436ZM212.605 69.4398H215.482V91.7671H212.605V69.4398Z" fill="#030A21"/>
</svg>
